<?xml version="1.0" encoding="UTF-8"?>
<svg xmlns="http://www.w3.org/2000/svg" xmlns:xlink="http://www.w3.org/1999/xlink" width="24px" height="24px" viewBox="0 0 24 24" version="1.1">
<g id="surface1">
<path style=" stroke:none;fill-rule:nonzero;fill:rgb(56.078434%,85.09804%,76.078433%);fill-opacity:1;" d="M 10.910156 0.382812 C 9.527344 0.382812 8.40625 1.503906 8.40625 2.886719 L 8.40625 23.617188 L 16.011719 23.617188 L 17.03125 12 L 16.011719 0.382812 Z M 10.910156 0.382812 "/>
<path style=" stroke:none;fill-rule:nonzero;fill:rgb(29.411766%,73.725492%,83.92157%);fill-opacity:1;" d="M 21.113281 0.382812 L 16.011719 0.382812 L 16.011719 23.617188 L 21.113281 23.617188 C 22.496094 23.617188 23.617188 22.496094 23.617188 21.113281 L 23.617188 2.886719 C 23.617188 1.503906 22.496094 0.382812 21.113281 0.382812 Z M 21.113281 0.382812 "/>
<path style=" stroke:none;fill-rule:nonzero;fill:rgb(100%,100%,100%);fill-opacity:1;" d="M 21.300781 4.136719 C 21.300781 3.316406 20.636719 2.652344 19.8125 2.652344 C 18.992188 2.652344 18.328125 3.316406 18.328125 4.136719 C 18.328125 4.957031 18.992188 5.625 19.8125 5.625 C 20.636719 5.625 21.300781 4.957031 21.300781 4.136719 Z M 21.300781 4.136719 "/>
<path style=" stroke:none;fill-rule:nonzero;fill:rgb(100%,100%,100%);fill-opacity:1;" d="M 21.300781 9.378906 C 21.300781 8.558594 20.636719 7.894531 19.8125 7.894531 C 18.992188 7.894531 18.328125 8.558594 18.328125 9.378906 C 18.328125 10.199219 18.992188 10.867188 19.8125 10.867188 C 20.636719 10.867188 21.300781 10.199219 21.300781 9.378906 Z M 21.300781 9.378906 "/>
<path style=" stroke:none;fill-rule:nonzero;fill:rgb(100%,100%,100%);fill-opacity:1;" d="M 21.300781 14.621094 C 21.300781 13.800781 20.636719 13.132812 19.8125 13.132812 C 18.992188 13.132812 18.328125 13.800781 18.328125 14.621094 C 18.328125 15.441406 18.992188 16.105469 19.8125 16.105469 C 20.636719 16.105469 21.300781 15.441406 21.300781 14.621094 Z M 21.300781 14.621094 "/>
<path style=" stroke:none;fill-rule:nonzero;fill:rgb(100%,100%,100%);fill-opacity:1;" d="M 21.300781 19.863281 C 21.300781 19.042969 20.636719 18.375 19.8125 18.375 C 18.992188 18.375 18.328125 19.042969 18.328125 19.863281 C 18.328125 20.683594 18.992188 21.347656 19.8125 21.347656 C 20.636719 21.347656 21.300781 20.683594 21.300781 19.863281 Z M 21.300781 19.863281 "/>
<path style=" stroke:none;fill-rule:nonzero;fill:rgb(100%,100%,100%);fill-opacity:1;" d="M 13.703125 4.136719 C 13.703125 3.316406 13.039062 2.652344 12.214844 2.652344 C 11.394531 2.652344 10.730469 3.316406 10.730469 4.136719 C 10.730469 4.957031 11.394531 5.625 12.214844 5.625 C 13.039062 5.625 13.703125 4.957031 13.703125 4.136719 Z M 13.703125 4.136719 "/>
<path style=" stroke:none;fill-rule:nonzero;fill:rgb(94.901961%,24.313726%,42.745098%);fill-opacity:1;" d="M 12.570312 9.125 L 12.570312 7.097656 L 1.707031 7.097656 L 1.707031 9.125 "/>
<path style=" stroke:none;fill-rule:nonzero;fill:rgb(100%,44.705883%,14.901961%);fill-opacity:1;" d="M 1.707031 8.617188 C 1.707031 8.617188 1.410156 8.785156 1.046875 8.996094 C 0.679688 9.203125 0.382812 9.753906 0.382812 10.21875 L 0.382812 12.910156 L 7.136719 13.929688 L 13.894531 12.910156 L 13.894531 10.21875 C 13.894531 9.753906 13.597656 9.203125 13.230469 8.996094 C 12.867188 8.785156 12.570312 8.617188 12.570312 8.617188 "/>
<path style=" stroke:none;fill-rule:nonzero;fill:rgb(100%,44.705883%,14.901961%);fill-opacity:1;" d="M 0.382812 21.085938 L 0.382812 22.351562 C 0.382812 23.046875 0.953125 23.617188 1.648438 23.617188 L 12.628906 23.617188 C 13.324219 23.617188 13.894531 23.046875 13.894531 22.351562 L 13.894531 21.085938 L 7.136719 20.066406 Z M 0.382812 21.085938 "/>
<path style=" stroke:none;fill-rule:nonzero;fill:rgb(96.862745%,92.156863%,83.137256%);fill-opacity:1;" d="M 0.382812 12.910156 L 13.894531 12.910156 L 13.894531 21.085938 L 0.382812 21.085938 Z M 0.382812 12.910156 "/>
<path style=" stroke:none;fill-rule:nonzero;fill:rgb(100%,81.960785%,36.470589%);fill-opacity:1;" d="M 1.429688 4.4375 C 1.082031 4.4375 0.796875 4.722656 0.796875 5.070312 L 0.796875 7.097656 L 3.84375 7.097656 L 3.335938 4.4375 C 3.335938 4.4375 1.429688 4.4375 1.429688 4.4375 Z M 1.429688 4.4375 "/>
<path style=" stroke:none;fill-rule:nonzero;fill:rgb(100%,81.960785%,36.470589%);fill-opacity:1;" d="M 13.480469 5.070312 C 13.480469 4.722656 13.195312 4.4375 12.847656 4.4375 L 10.941406 4.4375 L 10.433594 7.097656 L 13.480469 7.097656 Z M 13.480469 5.070312 "/>
<path style=" stroke:none;fill-rule:nonzero;fill:rgb(100%,81.960785%,36.470589%);fill-opacity:1;" d="M 5.871094 4.4375 L 5.359375 7.097656 L 8.917969 7.097656 L 8.40625 4.4375 Z M 5.871094 4.4375 "/>
<path style=" stroke:none;fill-rule:nonzero;fill:rgb(96.862745%,92.156863%,83.137256%);fill-opacity:1;" d="M 3.335938 4.4375 L 5.871094 4.4375 L 5.871094 7.097656 L 3.335938 7.097656 Z M 3.335938 4.4375 "/>
<path style=" stroke:none;fill-rule:nonzero;fill:rgb(96.862745%,92.156863%,83.137256%);fill-opacity:1;" d="M 8.40625 4.4375 L 10.941406 4.4375 L 10.941406 7.097656 L 8.40625 7.097656 Z M 8.40625 4.4375 "/>
<path style=" stroke:none;fill-rule:nonzero;fill:rgb(100%,81.960785%,36.470589%);fill-opacity:1;" d="M 4.847656 15.058594 C 3.777344 15.058594 2.910156 15.925781 2.910156 17 C 2.910156 18.070312 3.777344 18.9375 4.847656 18.9375 L 7.136719 18.9375 L 7.136719 15.058594 Z M 4.847656 15.058594 "/>
<path style=" stroke:none;fill-rule:nonzero;fill:rgb(96.078432%,43.137255%,57.254905%);fill-opacity:1;" d="M 9.429688 15.058594 L 7.136719 15.058594 L 7.136719 18.9375 L 9.429688 18.9375 C 10.5 18.9375 11.367188 18.070312 11.367188 17 C 11.367188 15.925781 10.5 15.058594 9.429688 15.058594 Z M 9.429688 15.058594 "/>
<path style=" stroke:none;fill-rule:nonzero;fill:rgb(24.313726%,1.568628%,7.058824%);fill-opacity:1;" d="M 13.894531 7.480469 C 14.105469 7.480469 14.277344 7.308594 14.277344 7.097656 C 14.277344 6.882812 14.105469 6.714844 13.894531 6.714844 L 13.863281 6.714844 L 13.863281 5.070312 C 13.863281 4.507812 13.40625 4.054688 12.847656 4.054688 L 1.429688 4.054688 C 0.871094 4.054688 0.414062 4.507812 0.414062 5.070312 L 0.414062 6.714844 L 0.382812 6.714844 C 0.171875 6.714844 0 6.882812 0 7.097656 C 0 7.308594 0.171875 7.480469 0.382812 7.480469 L 1.324219 7.480469 L 1.324219 8.394531 L 0.855469 8.664062 C 0.375 8.9375 0 9.621094 0 10.21875 L 0 22.351562 C 0 23.261719 0.738281 24 1.648438 24 L 12.628906 24 C 13.539062 24 14.277344 23.261719 14.277344 22.351562 L 14.277344 10.21875 C 14.277344 9.621094 13.902344 8.9375 13.421875 8.664062 L 12.953125 8.394531 L 12.953125 7.480469 Z M 1.179688 5.070312 C 1.179688 4.933594 1.296875 4.820312 1.429688 4.820312 L 2.953125 4.820312 L 2.953125 5.5625 C 2.953125 5.777344 3.121094 5.945312 3.335938 5.945312 C 3.546875 5.945312 3.71875 5.777344 3.71875 5.5625 L 3.71875 4.820312 L 5.488281 4.820312 L 5.488281 5.5625 C 5.488281 5.777344 5.660156 5.945312 5.871094 5.945312 C 6.082031 5.945312 6.253906 5.777344 6.253906 5.5625 L 6.253906 4.820312 L 8.023438 4.820312 L 8.023438 5.5625 C 8.023438 5.777344 8.195312 5.945312 8.40625 5.945312 C 8.617188 5.945312 8.789062 5.777344 8.789062 5.5625 L 8.789062 4.820312 L 10.558594 4.820312 L 10.558594 5.5625 C 10.558594 5.777344 10.730469 5.945312 10.941406 5.945312 C 11.152344 5.945312 11.324219 5.777344 11.324219 5.5625 L 11.324219 4.820312 L 12.847656 4.820312 C 12.980469 4.820312 13.097656 4.933594 13.097656 5.070312 L 13.097656 6.714844 L 1.179688 6.714844 Z M 13.511719 20.703125 L 0.765625 20.703125 L 0.765625 13.292969 L 13.511719 13.292969 Z M 12.628906 23.234375 L 1.648438 23.234375 C 1.160156 23.234375 0.765625 22.839844 0.765625 22.351562 L 0.765625 21.472656 L 13.511719 21.472656 L 13.511719 22.351562 C 13.511719 22.839844 13.117188 23.234375 12.628906 23.234375 Z M 12.378906 8.949219 L 13.042969 9.328125 C 13.285156 9.46875 13.511719 9.894531 13.511719 10.21875 L 13.511719 12.527344 L 0.765625 12.527344 L 0.765625 10.21875 C 0.765625 9.894531 0.988281 9.46875 1.234375 9.328125 L 1.898438 8.949219 C 2.015625 8.878906 2.089844 8.753906 2.089844 8.617188 L 2.089844 7.480469 L 12.1875 7.480469 L 12.1875 8.617188 C 12.1875 8.753906 12.257812 8.878906 12.378906 8.949219 Z M 12.378906 8.949219 "/>
<path style=" stroke:none;fill-rule:nonzero;fill:rgb(24.313726%,1.568628%,7.058824%);fill-opacity:1;" d="M 4.847656 19.320312 L 9.429688 19.320312 C 10.710938 19.320312 11.75 18.277344 11.75 17 C 11.75 15.71875 10.710938 14.675781 9.429688 14.675781 L 4.847656 14.675781 C 3.566406 14.675781 2.527344 15.71875 2.527344 17 C 2.527344 18.277344 3.566406 19.320312 4.847656 19.320312 Z M 10.984375 17 C 10.984375 17.855469 10.289062 18.554688 9.429688 18.554688 L 7.519531 18.554688 L 7.519531 15.441406 L 9.429688 15.441406 C 10.289062 15.441406 10.984375 16.140625 10.984375 17 Z M 4.847656 15.441406 L 6.753906 15.441406 L 6.753906 18.554688 L 4.847656 18.554688 C 3.988281 18.554688 3.292969 17.855469 3.292969 17 C 3.292969 16.140625 3.988281 15.441406 4.847656 15.441406 Z M 4.847656 15.441406 "/>
<path style=" stroke:none;fill-rule:nonzero;fill:rgb(24.313726%,1.568628%,7.058824%);fill-opacity:1;" d="M 11.035156 8.234375 L 6.304688 8.234375 C 6.09375 8.234375 5.921875 8.40625 5.921875 8.617188 C 5.921875 8.828125 6.09375 9 6.304688 9 L 11.035156 9 C 11.25 9 11.421875 8.828125 11.421875 8.617188 C 11.421875 8.40625 11.25 8.234375 11.035156 8.234375 Z M 11.035156 8.234375 "/>
<path style=" stroke:none;fill-rule:nonzero;fill:rgb(24.313726%,1.568628%,7.058824%);fill-opacity:1;" d="M 4.773438 8.234375 L 3.238281 8.234375 C 3.027344 8.234375 2.855469 8.40625 2.855469 8.617188 C 2.855469 8.828125 3.027344 9 3.238281 9 L 4.773438 9 C 4.984375 9 5.15625 8.828125 5.15625 8.617188 C 5.15625 8.40625 4.984375 8.234375 4.773438 8.234375 Z M 4.773438 8.234375 "/>
<path style=" stroke:none;fill-rule:nonzero;fill:rgb(24.313726%,1.568628%,7.058824%);fill-opacity:1;" d="M 15.628906 22.085938 C 15.628906 22.296875 15.800781 22.46875 16.011719 22.46875 C 16.222656 22.46875 16.394531 22.296875 16.394531 22.085938 L 16.394531 19.019531 C 16.394531 18.808594 16.222656 18.636719 16.011719 18.636719 C 15.800781 18.636719 15.628906 18.808594 15.628906 19.019531 Z M 15.628906 22.085938 "/>
<path style=" stroke:none;fill-rule:nonzero;fill:rgb(24.313726%,1.568628%,7.058824%);fill-opacity:1;" d="M 16.011719 17.871094 C 16.222656 17.871094 16.394531 17.699219 16.394531 17.488281 L 16.394531 1.914062 C 16.394531 1.703125 16.222656 1.53125 16.011719 1.53125 C 15.800781 1.53125 15.628906 1.703125 15.628906 1.914062 L 15.628906 17.488281 C 15.628906 17.699219 15.800781 17.871094 16.011719 17.871094 Z M 16.011719 17.871094 "/>
<path style=" stroke:none;fill-rule:nonzero;fill:rgb(24.313726%,1.568628%,7.058824%);fill-opacity:1;" d="M 21.113281 0 L 10.910156 0 C 9.316406 0 8.023438 1.292969 8.023438 2.886719 C 8.023438 3.097656 8.195312 3.269531 8.40625 3.269531 C 8.617188 3.269531 8.789062 3.097656 8.789062 2.886719 C 8.789062 1.714844 9.738281 0.765625 10.910156 0.765625 L 21.113281 0.765625 C 22.285156 0.765625 23.234375 1.714844 23.234375 2.886719 L 23.234375 21.113281 C 23.234375 22.285156 22.285156 23.234375 21.113281 23.234375 L 15.128906 23.234375 C 14.917969 23.234375 14.746094 23.40625 14.746094 23.617188 C 14.746094 23.828125 14.917969 24 15.128906 24 L 21.113281 24 C 22.707031 24 24 22.707031 24 21.113281 L 24 2.886719 C 24 1.292969 22.707031 0 21.113281 0 Z M 21.113281 0 "/>
<path style=" stroke:none;fill-rule:nonzero;fill:rgb(24.313726%,1.568628%,7.058824%);fill-opacity:1;" d="M 19.8125 6.007812 C 20.84375 6.007812 21.683594 5.167969 21.683594 4.136719 C 21.683594 3.105469 20.84375 2.269531 19.8125 2.269531 C 18.785156 2.269531 17.945312 3.105469 17.945312 4.136719 C 17.945312 5.167969 18.785156 6.007812 19.8125 6.007812 Z M 19.8125 3.035156 C 20.421875 3.035156 20.917969 3.527344 20.917969 4.136719 C 20.917969 4.746094 20.421875 5.242188 19.8125 5.242188 C 19.207031 5.242188 18.710938 4.746094 18.710938 4.136719 C 18.710938 3.527344 19.207031 3.035156 19.8125 3.035156 Z M 19.8125 3.035156 "/>
<path style=" stroke:none;fill-rule:nonzero;fill:rgb(24.313726%,1.568628%,7.058824%);fill-opacity:1;" d="M 19.8125 11.25 C 20.84375 11.25 21.683594 10.410156 21.683594 9.378906 C 21.683594 8.347656 20.84375 7.507812 19.8125 7.507812 C 18.785156 7.507812 17.945312 8.347656 17.945312 9.378906 C 17.945312 10.410156 18.785156 11.25 19.8125 11.25 Z M 19.8125 8.277344 C 20.421875 8.277344 20.917969 8.769531 20.917969 9.378906 C 20.917969 9.988281 20.421875 10.484375 19.8125 10.484375 C 19.207031 10.484375 18.710938 9.988281 18.710938 9.378906 C 18.710938 8.769531 19.207031 8.277344 19.8125 8.277344 Z M 19.8125 8.277344 "/>
<path style=" stroke:none;fill-rule:nonzero;fill:rgb(24.313726%,1.568628%,7.058824%);fill-opacity:1;" d="M 19.8125 16.492188 C 20.84375 16.492188 21.683594 15.652344 21.683594 14.621094 C 21.683594 13.589844 20.84375 12.75 19.8125 12.75 C 18.785156 12.75 17.945312 13.589844 17.945312 14.621094 C 17.945312 15.652344 18.785156 16.492188 19.8125 16.492188 Z M 19.8125 13.515625 C 20.421875 13.515625 20.917969 14.011719 20.917969 14.621094 C 20.917969 15.230469 20.421875 15.722656 19.8125 15.722656 C 19.207031 15.722656 18.710938 15.230469 18.710938 14.621094 C 18.710938 14.011719 19.207031 13.515625 19.8125 13.515625 Z M 19.8125 13.515625 "/>
<path style=" stroke:none;fill-rule:nonzero;fill:rgb(24.313726%,1.568628%,7.058824%);fill-opacity:1;" d="M 19.8125 21.730469 C 20.84375 21.730469 21.683594 20.894531 21.683594 19.863281 C 21.683594 18.832031 20.84375 17.992188 19.8125 17.992188 C 18.785156 17.992188 17.945312 18.832031 17.945312 19.863281 C 17.945312 20.894531 18.785156 21.730469 19.8125 21.730469 Z M 19.8125 18.757812 C 20.421875 18.757812 20.917969 19.253906 20.917969 19.863281 C 20.917969 20.46875 20.421875 20.964844 19.8125 20.964844 C 19.207031 20.964844 18.710938 20.46875 18.710938 19.863281 C 18.710938 19.253906 19.207031 18.757812 19.8125 18.757812 Z M 19.8125 18.757812 "/>
<path style=" stroke:none;fill-rule:nonzero;fill:rgb(24.313726%,1.568628%,7.058824%);fill-opacity:1;" d="M 11.59375 3.222656 C 11.773438 3.097656 11.988281 3.035156 12.210938 3.035156 C 12.433594 3.035156 12.652344 3.101562 12.835938 3.230469 C 12.902344 3.277344 12.980469 3.296875 13.054688 3.296875 C 13.175781 3.296875 13.292969 3.238281 13.367188 3.132812 C 13.488281 2.957031 13.445312 2.71875 13.273438 2.597656 C 12.957031 2.382812 12.589844 2.269531 12.210938 2.269531 C 11.835938 2.269531 11.472656 2.378906 11.164062 2.585938 C 10.988281 2.707031 10.941406 2.945312 11.0625 3.121094 C 11.179688 3.292969 11.417969 3.339844 11.59375 3.222656 Z M 11.59375 3.222656 "/>
</g>
</svg>
