<?xml version="1.0" encoding="UTF-8"?>
<svg xmlns="http://www.w3.org/2000/svg" xmlns:xlink="http://www.w3.org/1999/xlink" width="24px" height="24px" viewBox="0 0 24 24" version="1.1">
<g id="surface1">
<path style=" stroke:none;fill-rule:nonzero;fill:rgb(0%,0%,0%);fill-opacity:1;" d="M 16.5 10.5 C 15.445312 10.5 14.410156 10.78125 13.5 11.3125 L 13.5 6.75 C 13.5 3.851562 11.148438 1.5 8.25 1.5 C 5.351562 1.5 3 3.851562 3 6.75 L 3 17.25 C 2.996094 19.441406 4.355469 21.402344 6.410156 22.167969 C 8.460938 22.933594 10.773438 22.34375 12.207031 20.683594 C 14.109375 22.632812 17.085938 23.058594 19.457031 21.71875 C 21.828125 20.375 22.996094 17.601562 22.300781 14.96875 C 21.609375 12.335938 19.222656 10.5 16.5 10.5 Z M 8.25 3 C 10.320312 3.003906 11.996094 4.679688 12 6.75 L 12 11.25 L 4.5 11.25 L 4.5 6.75 C 4.503906 4.679688 6.179688 3.003906 8.25 3 Z M 8.25 21 C 6.179688 20.996094 4.503906 19.320312 4.5 17.25 L 4.5 12.75 L 11.824219 12.75 C 10.28125 14.660156 10.066406 17.316406 11.28125 19.449219 C 10.574219 20.417969 9.449219 20.996094 8.25 21 Z M 16.5 21 C 14.015625 21 12 18.984375 12 16.5 C 12 14.015625 14.015625 12 16.5 12 C 18.984375 12 21 14.015625 21 16.5 C 20.996094 18.984375 18.984375 20.996094 16.5 21 Z M 16.5 21 "/>
<path style=" stroke:none;fill-rule:nonzero;fill:rgb(0%,0%,0%);fill-opacity:1;" d="M 18.75 15.75 L 17.25 15.75 L 17.25 14.25 L 15.75 14.25 L 15.75 15.75 L 14.25 15.75 L 14.25 17.25 L 15.75 17.25 L 15.75 18.75 L 17.25 18.75 L 17.25 17.25 L 18.75 17.25 Z M 18.75 15.75 "/>
</g>
</svg>
