<?xml version="1.0" encoding="UTF-8"?>
<svg xmlns="http://www.w3.org/2000/svg" xmlns:xlink="http://www.w3.org/1999/xlink" width="24px" height="24px" viewBox="0 0 24 24" version="1.1">
<g id="surface1">
<path style=" stroke:none;fill-rule:nonzero;fill:rgb(0%,0%,0%);fill-opacity:1;" d="M 18.808594 8.378906 L 15.816406 4.835938 L 16.660156 4.835938 C 16.984375 4.835938 17.246094 4.574219 17.246094 4.25 L 17.246094 0.585938 C 17.246094 0.261719 16.984375 0 16.660156 0 L 7.339844 0 C 7.015625 0 6.753906 0.261719 6.753906 0.585938 L 6.753906 4.25 C 6.753906 4.574219 7.015625 4.835938 7.339844 4.835938 L 8.183594 4.835938 L 5.191406 8.378906 C 5.101562 8.484375 5.054688 8.617188 5.054688 8.753906 C 5.054688 9.441406 5.054688 22.929688 5.054688 23.414062 C 5.054688 23.738281 5.316406 24 5.640625 24 L 18.359375 24 C 18.683594 24 18.945312 23.738281 18.945312 23.414062 C 18.945312 22.636719 18.945312 9.308594 18.945312 8.753906 C 18.945312 8.617188 18.898438 8.484375 18.808594 8.378906 Z M 7.925781 3.664062 L 7.925781 1.167969 L 16.074219 1.167969 L 16.074219 3.664062 C 14.503906 3.664062 9.699219 3.664062 7.925781 3.664062 Z M 17.777344 22.832031 L 6.222656 22.832031 L 6.222656 20.035156 L 17.777344 20.035156 Z M 17.777344 18.863281 L 6.222656 18.863281 L 6.222656 12.191406 L 17.777344 12.191406 Z M 17.777344 11.023438 L 6.222656 11.023438 L 6.222656 8.96875 L 9.714844 4.835938 L 14.285156 4.835938 L 17.777344 8.96875 Z M 17.777344 11.023438 "/>
<path style=" stroke:none;fill-rule:nonzero;fill:rgb(0%,0%,0%);fill-opacity:1;" d="M 10.070312 16.292969 L 11.015625 16.292969 C 11.136719 16.292969 11.234375 16.390625 11.234375 16.511719 L 11.234375 17.457031 C 11.234375 17.578125 11.335938 17.675781 11.457031 17.675781 L 12.542969 17.675781 C 12.664062 17.675781 12.765625 17.578125 12.765625 17.457031 L 12.765625 16.511719 C 12.765625 16.390625 12.863281 16.292969 12.984375 16.292969 L 13.929688 16.292969 C 14.050781 16.292969 14.148438 16.191406 14.148438 16.070312 L 14.148438 14.984375 C 14.148438 14.863281 14.050781 14.761719 13.929688 14.761719 L 12.984375 14.761719 C 12.863281 14.761719 12.765625 14.664062 12.765625 14.542969 L 12.765625 13.597656 C 12.765625 13.476562 12.664062 13.378906 12.542969 13.378906 L 11.457031 13.378906 C 11.335938 13.378906 11.234375 13.476562 11.234375 13.597656 L 11.234375 14.542969 C 11.234375 14.664062 11.136719 14.761719 11.015625 14.761719 L 10.070312 14.761719 C 9.949219 14.761719 9.851562 14.863281 9.851562 14.984375 L 9.851562 16.070312 C 9.851562 16.191406 9.949219 16.292969 10.070312 16.292969 Z M 10.070312 16.292969 "/>
</g>
</svg>
