<?xml version="1.0" standalone="no"?>
<!DOCTYPE svg PUBLIC "-//W3C//DTD SVG 20010904//EN"
 "http://www.w3.org/TR/2001/REC-SVG-20010904/DTD/svg10.dtd">
<svg version="1.0" xmlns="http://www.w3.org/2000/svg"
 width="50.000000pt" height="50.000000pt" viewBox="0 0 50.000000 50.000000"
 preserveAspectRatio="xMidYMid meet">

<g transform="translate(0.000000,50.000000) scale(0.100000,-0.100000)"
fill="#000000" stroke="none">
<path d="M138 419 c-41 -16 -58 -64 -58 -168 0 -152 20 -171 184 -171 98 0
106 2 135 26 l31 26 0 118 c0 111 -2 121 -24 147 -24 27 -27 28 -133 30 -59 1
-120 -2 -135 -8z m144 -37 c-6 -5 -15 -39 -18 -78 -3 -38 -9 -71 -11 -74 -3
-3 -3 29 0 70 4 41 7 78 7 83 0 4 8 7 18 7 12 0 13 -3 4 -8z m75 -14 c-3 -8
-6 -5 -6 6 -1 11 2 17 5 13 3 -3 4 -12 1 -19z m-122 2 c3 -5 -2 -10 -12 -11
-16 0 -16 -1 2 -9 14 -6 4 -9 -37 -9 -42 -1 -58 3 -58 12 0 8 3 17 7 20 10 11
91 8 98 -3z m134 -43 c7 -13 11 -43 8 -68 -3 -44 -4 -44 -5 9 -2 45 -5 53 -19
50 -11 -2 -19 -14 -21 -31 -4 -30 14 -38 21 -9 3 9 5 0 6 -20 1 -32 -2 -38
-19 -38 -17 0 -20 7 -20 45 0 41 16 85 31 85 3 0 11 -10 18 -23z m-129 -55 c0
-28 -2 -29 -55 -30 -55 -1 -55 -1 -55 28 0 30 1 30 55 30 54 0 55 -1 55 -28z
m-16 -45 c36 -26 -4 -84 -41 -61 -25 16 -28 45 -7 61 10 7 21 13 24 13 3 0 14
-6 24 -13z m149 -24 c-13 -2 -33 -2 -45 0 -13 2 -3 4 22 4 25 0 35 -2 23 -4z
m-83 -7 c0 -2 -8 -10 -17 -17 -16 -13 -17 -12 -4 4 13 16 21 21 21 13z m80
-21 c0 -8 -5 -15 -12 -15 -6 0 -3 -7 8 -15 18 -14 18 -14 -7 -15 -22 0 -26 4
-27 30 0 23 4 30 19 30 10 0 19 -7 19 -15z m-200 -19 c0 -8 -5 -18 -11 -22
-14 -8 -33 11 -25 25 10 16 36 13 36 -3z m100 -17 c0 -13 -41 -22 -52 -11 -6
6 -3 15 7 26 13 13 20 14 31 5 8 -6 14 -15 14 -20z"/>
<path d="M173 263 c9 -2 23 -2 30 0 6 3 -1 5 -18 5 -16 0 -22 -2 -12 -5z"/>
<path d="M195 200 c10 -11 20 -20 23 -20 3 0 -3 9 -13 20 -10 11 -20 20 -23
20 -3 0 3 -9 13 -20z"/>
</g>
</svg>
