<?xml version="1.0" encoding="UTF-8"?>
<svg version="1.1" xmlns="http://www.w3.org/2000/svg" width="127" height="126">
<path d="M0 0 C1.00329346 0.00829834 2.00658691 0.01659668 3.0402832 0.02514648 C20.94367717 0.4305009 35.21636358 7.62987423 47.6875 20.4375 C58.80648977 32.49447133 64.29001496 46.78306416 64.1875 63.125 C64.18250488 64.17574707 64.17750977 65.22649414 64.17236328 66.30908203 C63.77718486 84.05395599 56.22068169 98.05053876 43.6875 110.4375 C31.54638475 121.54486087 16.72867957 127.05117417 0.375 126.875 C-0.62829346 126.86670166 -1.63158691 126.85840332 -2.6652832 126.84985352 C-20.56867717 126.4444991 -34.84136358 119.24512577 -47.3125 106.4375 C-58.43148977 94.38052867 -63.91501496 80.09193584 -63.8125 63.75 C-63.80750488 62.69925293 -63.80250977 61.64850586 -63.79736328 60.56591797 C-63.40218486 42.82104401 -55.84568169 28.82446124 -43.3125 16.4375 C-31.17138475 5.33013913 -16.35367957 -0.17617417 0 0 Z " fill="#B1DCEB" transform="translate(63.3125,-0.4375)"/>
<path d="M0 0 C4.09854948 2.2387035 7.80098912 4.95091189 11.32421875 8.01953125 C11.84371094 7.53742187 12.36320312 7.0553125 12.8984375 6.55859375 C13.59582031 5.92695313 14.29320312 5.2953125 15.01171875 4.64453125 C15.69621094 4.01804687 16.38070312 3.3915625 17.0859375 2.74609375 C22.33886428 -1.30590213 27.50325613 -1.53157514 33.9609375 -1.421875 C40.12033059 -0.61349937 44.77930332 2.28254673 48.98046875 6.80078125 C54.03804148 13.50500556 55.34515644 19.80764115 54.32421875 28.01953125 C51.68455968 37.06176763 44.77534237 43.51376282 38.32421875 50.01953125 C37.43057617 50.92155273 36.53693359 51.82357422 35.61621094 52.75292969 C29.63610212 58.77959187 23.62678228 64.77652191 17.6015625 70.75805664 C16.26269834 72.08759124 14.93994727 73.43437106 13.65771484 74.81860352 C12.32421875 76.01953125 12.32421875 76.01953125 10.05078125 76.13671875 C5.92365938 74.44566308 3.60956835 71.44973668 0.69921875 68.14453125 C-6.06876308 60.66913969 -13.10601612 53.52930787 -20.32861328 46.49267578 C-27.55762388 39.36981805 -32.56537996 33.29812095 -33.11328125 22.76953125 C-32.95239068 15.8133803 -30.78686691 9.99508447 -25.703125 5.1328125 C-23.74450142 3.62082831 -21.80742107 2.2739356 -19.67578125 1.01953125 C-19.0621875 0.64699219 -18.44859375 0.27445313 -17.81640625 -0.109375 C-12.41571756 -2.30710051 -5.41056121 -1.98255601 0 0 Z " fill="#060808" transform="translate(52.67578125,25.98046875)"/>
<path d="M0 0 C3.56359575 1.73987322 5.86869821 3.76846506 8.4375 6.75 C11.20961658 9.64991724 11.20961658 9.64991724 15.1875 10.25 C18.61235483 8.7278423 19.77840559 6.98526749 22 4 C26.73045445 -0.37567037 30.96972592 -0.61611681 37.16015625 -0.37890625 C42.53703254 0.33850365 45.48768378 3.15592863 48.875 7.125 C51.79892688 11.54400924 51.89434688 15.87347591 51 21 C49.81858822 24.21723744 48.4578071 27.5421929 46 30 C43.98035801 30.07244053 41.95832876 30.08377188 39.9375 30.0625 C38.28041016 30.04896484 38.28041016 30.04896484 36.58984375 30.03515625 C35.73519531 30.02355469 34.88054687 30.01195313 34 30 C32.66042079 27.21128823 31.32941565 24.41856938 30 21.625 C29.6184375 20.8309375 29.236875 20.036875 28.84375 19.21875 C28.30234375 18.07792969 28.30234375 18.07792969 27.75 16.9140625 C27.41484375 16.2123291 27.0796875 15.5105957 26.734375 14.78759766 C26 13 26 13 26 11 C23.5765967 11.13885465 23.5765967 11.13885465 21 12 C19.43365366 14.03357236 19.43365366 14.03357236 18.39453125 16.65625 C17.96849609 17.59597656 17.54246094 18.53570312 17.10351562 19.50390625 C16.67748047 20.49261719 16.25144531 21.48132813 15.8125 22.5 C14.94925523 24.45024664 14.08101872 26.39829391 13.20703125 28.34375 C12.8303833 29.21193359 12.45373535 30.08011719 12.06567383 30.97460938 C11 33 11 33 9 34 C7.02 30.37 5.04 26.74 3 23 C1.35 23.33 -0.3 23.66 -2 24 C-3.85916824 26.96707046 -3.85916824 26.96707046 -5 30 C-16.08823183 30.7845447 -16.08823183 30.7845447 -19.6875 27.6875 C-22.39575738 22.1420206 -22.61986994 17.08520207 -22 11 C-20.375 7.625 -20.375 7.625 -18 5 C-17.175 4.05125 -16.35 3.1025 -15.5 2.125 C-11.12930051 -1.34026046 -5.25543166 -0.84879112 0 0 Z " fill="#9AC0C5" transform="translate(49,32)"/>
<path d="M0 0 C3 1 3 1 4.38671875 3.43359375 C4.81597656 4.42488281 5.24523437 5.41617188 5.6875 6.4375 C6.12449219 7.42621094 6.56148437 8.41492188 7.01171875 9.43359375 C8 12 8 12 8 14 C10.64 14 13.28 14 16 14 C14.58932441 15.65152265 13.1776747 17.30222104 11.76171875 18.94921875 C10.63509301 20.26070105 9.51230872 21.57549944 8.39453125 22.89453125 C3.54545283 28.54986974 -1.68632234 33.78254588 -7 39 C-11.96097736 34.83405107 -16.66757402 30.51496664 -21.25 25.9375 C-21.86101563 25.33873047 -22.47203125 24.73996094 -23.1015625 24.12304688 C-26.27621936 20.95878737 -28.90456818 18.01624433 -31 14 C-29.88625 13.896875 -28.7725 13.79375 -27.625 13.6875 C-26.42875 13.460625 -25.2325 13.23375 -24 13 C-23.34 12.01 -22.68 11.02 -22 10 C-21.34 10 -20.68 10 -20 10 C-18.02 13.96 -16.04 17.92 -14 22 C-12.68 22 -11.36 22 -10 22 C-6.7 14.74 -3.4 7.48 0 0 Z " fill="#95B9C5" transform="translate(71,55)"/>
<path d="M0 0 C4.98738673 2.26699397 8.75105811 5.97576811 11 11 C12.28023168 17.82419146 10.73477182 23.25535097 7 29 C6 30 6 30 3.27734375 30.09765625 C2.17519531 30.08605469 1.07304688 30.07445313 -0.0625 30.0625 C-1.16722656 30.05347656 -2.27195312 30.04445313 -3.41015625 30.03515625 C-4.26480469 30.02355469 -5.11945313 30.01195313 -6 30 C-7.33957921 27.21128823 -8.67058435 24.41856938 -10 21.625 C-10.3815625 20.8309375 -10.763125 20.036875 -11.15625 19.21875 C-11.5171875 18.45820312 -11.878125 17.69765625 -12.25 16.9140625 C-12.58515625 16.2123291 -12.9203125 15.5105957 -13.265625 14.78759766 C-14 13 -14 13 -14 11 C-18.16138263 10.91840426 -21.9472484 11.01751476 -26 12 C-25.278125 11.443125 -24.55625 10.88625 -23.8125 10.3125 C-20.96257606 8.04551561 -20.96257606 8.04551561 -18.4375 5.4375 C-12.54550031 -0.45449969 -8.25743766 -0.97537519 0 0 Z " fill="#92B6CB" transform="translate(89,32)"/>
<path d="M0 0 C-3.04316825 3.04316825 -6.88935166 4.03982288 -10.859375 5.5859375 C-24.10438553 11.54948702 -35.233094 23.81647097 -40.703125 37.125 C-42.97999923 43.61308408 -44.57832235 50.28014478 -46 57 C-46.33 57 -46.66 57 -47 57 C-48.16797328 43.68510458 -42.10645554 30.64172697 -33.93359375 20.4140625 C-25.65470571 10.82495044 -13.53838092 -0.82233129 0 0 Z " fill="#C2F1EA" transform="translate(47,3)"/>
<path d="M0 0 C0.66 0 1.32 0 2 0 C2.185625 1.34578125 2.185625 1.34578125 2.375 2.71875 C5.35644382 20.7564851 13.62959327 35.3127154 28.44921875 46.39453125 C33.35852651 49.48446309 38.66562437 51.74917381 44 54 C44 54.33 44 54.66 44 55 C34.76222782 55.64227114 27.45492383 49.50257283 20.75 43.6875 C10.18744506 33.667484 0.94408231 20.62197002 -0.1796875 5.59765625 C-0.18624931 3.73082127 -0.10355401 1.86397223 0 0 Z " fill="#C3F2EB" transform="translate(0,67)"/>
<path d="M0 0 C0 3 0 3 -2 6 C-0.35 6.33 1.3 6.66 3 7 C2.67 7.99 2.34 8.98 2 10 C2 9.34 2 8.68 2 8 C-2.16138263 7.91840426 -5.9472484 8.01751476 -10 9 C-9.278125 8.443125 -8.55625 7.88625 -7.8125 7.3125 C-5.02542701 5.02090666 -2.51358472 2.58540143 0 0 Z " fill="#8AACBA" transform="translate(73,35)"/>
<path d="M0 0 C3.45201639 1.47721422 5.64961936 3.43794001 8.25 6.125 C8.95640625 6.84945313 9.6628125 7.57390625 10.390625 8.3203125 C11.18726562 9.15175781 11.18726562 9.15175781 12 10 C11.67 10.66 11.34 11.32 11 12 C9.53487874 10.75796305 8.07814355 9.50602944 6.625 8.25 C5.81289062 7.55390625 5.00078125 6.8578125 4.1640625 6.140625 C2.14204193 4.14050357 1.06768771 2.60468871 0 0 Z " fill="#ABD6F7" transform="translate(102,13)"/>
<path d="M0 0 C0.33 0.99 0.66 1.98 1 3 C-0.40445835 5.2636564 -2.1967913 7.0208685 -4 9 C-4.33 8.01 -4.66 7.02 -5 6 C-4.360625 5.7525 -3.72125 5.505 -3.0625 5.25 C-0.81258459 4.18437567 -0.81258459 4.18437567 -0.25 1.875 C-0.1675 1.25625 -0.085 0.6375 0 0 Z " fill="#ACD6F9" transform="translate(114,98)"/>
<path d="M0 0 C2.64 0 5.28 0 8 0 C6.68 1.32 5.36 2.64 4 4 C4 3.34 4 2.68 4 2 C2.68 1.67 1.36 1.34 0 1 C0 0.67 0 0.34 0 0 Z " fill="#97BDD1" transform="translate(79,69)"/>
</svg>
