<?xml version="1.0" encoding="UTF-8"?>
<svg version="1.1" xmlns="http://www.w3.org/2000/svg" width="127" height="126">
<path d="M0 0 C1.00329346 0.00829834 2.00658691 0.01659668 3.0402832 0.02514648 C20.94367717 0.4305009 35.21636358 7.62987423 47.6875 20.4375 C58.80648977 32.49447133 64.29001496 46.78306416 64.1875 63.125 C64.18250488 64.17574707 64.17750977 65.22649414 64.17236328 66.30908203 C63.77718486 84.05395599 56.22068169 98.05053876 43.6875 110.4375 C31.54638475 121.54486087 16.72867957 127.05117417 0.375 126.875 C-0.62829346 126.86670166 -1.63158691 126.85840332 -2.6652832 126.84985352 C-20.56867717 126.4444991 -34.84136358 119.24512577 -47.3125 106.4375 C-58.43148977 94.38052867 -63.91501496 80.09193584 -63.8125 63.75 C-63.80750488 62.69925293 -63.80250977 61.64850586 -63.79736328 60.56591797 C-63.40218486 42.82104401 -55.84568169 28.82446124 -43.3125 16.4375 C-31.17138475 5.33013913 -16.35367957 -0.17617417 0 0 Z " fill="#B0DBEB" transform="translate(63.3125,-0.4375)"/>
<path d="M0 0 C8.63892218 3.87869975 14.06520219 9.85219003 18.0625 18.375 C18.71875 20.67578125 18.71875 20.67578125 19.0625 22.375 C7.89651971 27.73818739 -2.48110501 31.76248169 -14.9375 32.375 C-14.79650879 32.93372803 -14.65551758 33.49245605 -14.51025391 34.06811523 C-13.85970821 36.64925253 -13.21109533 39.23087195 -12.5625 41.8125 C-12.34078125 42.69099609 -12.1190625 43.56949219 -11.890625 44.47460938 C-10.64362762 49.4442607 -9.46049922 54.4183175 -8.39257812 59.4296875 C-7.75772217 62.14349237 -6.87842655 64.75384748 -5.9375 67.375 C-7.73369528 69.17119528 -10.18860589 68.79665065 -12.625 68.9375 C-18.27029812 68.85095651 -18.27029812 68.85095651 -20.75 67.08203125 C-22.3598242 64.93712344 -23.62721144 62.71650267 -24.9375 60.375 C-25.6902688 59.22326713 -26.45273881 58.07784057 -27.22265625 56.9375 C-33.16877242 48.05780937 -36.87957274 40.77893914 -36.68359375 29.76953125 C-35.77352155 25.62894099 -34.73161696 24.61251247 -31.3125 22.1875 C-29.19054492 20.91158895 -27.06525059 19.64122264 -24.9375 18.375 C-22.48449014 16.59136275 -20.11791344 14.70702228 -17.75 12.8125 C-17.1523584 12.34529541 -16.5547168 11.87809082 -15.93896484 11.39672852 C-12.61044932 8.78212473 -9.49667479 6.05549057 -6.4375 3.125 C-3.9973357 0.98921137 -3.30115913 0.42142457 0 0 Z " fill="#080A0A" transform="translate(71.9375,28.625)"/>
<path d="M0 0 C2.475 2.475 2.475 2.475 5 5 C2.03121034 7.46314054 -0.60361915 8.70425461 -4.28125 9.83203125 C-5.28800781 10.15623047 -6.29476562 10.48042969 -7.33203125 10.81445312 C-9.4406788 11.4787681 -11.55270174 12.13246422 -13.66796875 12.77539062 C-19.9935169 14.67677648 -19.9935169 14.67677648 -24.71875 19.01171875 C-26.26270953 22.07082642 -26.26270953 22.07082642 -26 26 C-26.66 26.33 -27.32 26.66 -28 27 C-28.54673178 34.55552951 -27.00342285 39.17914233 -23.5 45.8125 C-22.64940318 47.46132958 -21.80536551 49.11356373 -20.96875 50.76953125 C-20.59169922 51.48729736 -20.21464844 52.20506348 -19.82617188 52.94458008 C-19 55 -19 55 -19 59 C-20.98 59 -22.96 59 -25 59 C-25.1858667 58.42668945 -25.3717334 57.85337891 -25.56323242 57.26269531 C-31.04410857 37.9990468 -31.04410857 37.9990468 -41 21 C-40.34 19.68 -39.68 18.36 -39 17 C-36.525 17.99 -36.525 17.99 -34 19 C-34 18.67 -34 18.34 -34 18 C-34 16.68 -34 15.36 -34 14 C-32.83082031 13.90074219 -31.66164063 13.80148438 -30.45703125 13.69921875 C-26.16405902 13.15823061 -22.54109131 11.73544463 -18.6875 9.8125 C-18.0473999 9.50368896 -17.4072998 9.19487793 -16.74780273 8.87670898 C-11.06437187 6.10618697 -5.49853959 3.12079274 0 0 Z " fill="#AED9E5" transform="translate(81,37)"/>
<path d="M0 0 C4.04348019 1.68478341 6.87484857 4.22655468 10 7.25 C6.33344503 11.71318809 1.57280476 13.5990679 -3.5625 15.9375 C-4.42552734 16.34033203 -5.28855469 16.74316406 -6.17773438 17.15820312 C-15.30174788 21.39055438 -15.30174788 21.39055438 -20.6875 21.3125 C-21.89986328 21.29896484 -21.89986328 21.29896484 -23.13671875 21.28515625 C-23.75160156 21.27355469 -24.36648437 21.26195313 -25 21.25 C-21.54631915 15.72411063 -17.67313619 12.12317615 -12.4921875 8.1875 C-10.26753011 6.45798579 -8.27963656 4.6359511 -6.25 2.6875 C-3.85240615 0.642823 -3.27076879 0.27256407 0 0 Z " fill="#030405" transform="translate(72,28.75)"/>
<path d="M0 0 C0.66 0 1.32 0 2 0 C2.20753906 1.07636719 2.41507812 2.15273437 2.62890625 3.26171875 C6.22100568 20.73978507 13.8941562 34.6127239 28.484375 45.40234375 C36.15086453 50.27127887 44.10318396 53.36891706 53 55 C53.33 55.33 53.66 55.66 54 56 C55.66617115 56.04063832 57.33388095 56.042721 59 56 C58.505 56.99 58.505 56.99 58 58 C42.43057376 57.6567862 28.92496276 50.88559804 17.75 40.25 C7.42306526 29.39935383 -0.29289282 15.2304267 0 0 Z " fill="#C3F2EE" transform="translate(0,68)"/>
<path d="M0 0 C-2.49787239 2.49787239 -4.9367058 3.28800555 -8.1875 4.6875 C-24.40654561 12.39801985 -34.14977176 26.59760252 -40.10546875 43.0546875 C-41.35025325 46.99358307 -42.21209808 50.94691893 -43 55 C-43.33 55 -43.66 55 -44 55 C-45.29930529 42.26680812 -38.68165053 29.11011844 -30.93359375 19.4140625 C-23.79736936 11.14845303 -12.0019383 -1.53871004 0 0 Z " fill="#C1F0EA" transform="translate(44,4)"/>
<path d="M0 0 C-1.32 2.31 -2.64 4.62 -4 7 C-6.75 7.25 -6.75 7.25 -10 7 C-12.375 5 -12.375 5 -14 3 C-13.67 2.01 -13.34 1.02 -13 0 C-4.57142857 -1.28571429 -4.57142857 -1.28571429 0 0 Z " fill="#B5E2EC" transform="translate(60,51)"/>
<path d="M0 0 C0.66 0 1.32 0 2 0 C2.23074219 1.11117187 2.46148437 2.22234375 2.69921875 3.3671875 C4.38153042 11.14481863 6.06935017 18.23021431 10.046875 25.21484375 C11 27 11 27 11 29 C8 28 8 28 6.71875 25.84765625 C-0.5955976 9.13249651 -0.5955976 9.13249651 0 0 Z " fill="#C5F4E9" transform="translate(0,68)"/>
<path d="M0 0 C6.01164895 0.64990799 11.38681571 2.88039459 17 5 C20.89532501 6.44271297 23.84033813 7.24468599 28 7 C27.67 7.66 27.34 8.32 27 9 C18.28011234 8.80777803 7.88160992 7.33242881 1.125 1.3359375 C0.75375 0.89507812 0.3825 0.45421875 0 0 Z " fill="#BAE7EE" transform="translate(31,117)"/>
<path d="M0 0 C3.24745514 4.13312472 5 6.63932628 5 12 C3.02 12 1.04 12 -1 12 C-1.66 9.03 -2.32 6.06 -3 3 C-2.34 3 -1.68 3 -1 3 C-0.67 2.01 -0.34 1.02 0 0 Z " fill="#ADD7E3" transform="translate(57,84)"/>
<path d="M0 0 C0.66 0.33 1.32 0.66 2 1 C1.34 1.66 0.68 2.32 0 3 C2.31 3.33 4.62 3.66 7 4 C7 4.33 7 4.66 7 5 C4.36 5.33 1.72 5.66 -1 6 C-0.5359375 6.928125 -0.5359375 6.928125 -0.0625 7.875 C0.625 9.25 1.3125 10.625 2 12 C1.443125 11.690625 0.88625 11.38125 0.3125 11.0625 C-2.12540433 9.94238179 -4.36224186 9.43962636 -7 9 C-5.64978174 4.58110387 -3.73884332 2.65654657 0 0 Z " fill="#202829" transform="translate(48,46)"/>
<path d="M0 0 C3.45201639 1.47721422 5.64961936 3.43794001 8.25 6.125 C8.95640625 6.84945313 9.6628125 7.57390625 10.390625 8.3203125 C11.18726562 9.15175781 11.18726562 9.15175781 12 10 C11.67 10.66 11.34 11.32 11 12 C9.53487874 10.75796305 8.07814355 9.50602944 6.625 8.25 C5.81289062 7.55390625 5.00078125 6.8578125 4.1640625 6.140625 C2.14204193 4.14050357 1.06768771 2.60468871 0 0 Z " fill="#ABD5F8" transform="translate(102,13)"/>
<path d="M0 0 C1 3 1 3 0.00390625 5.26171875 C-0.47175781 6.06222656 -0.94742188 6.86273438 -1.4375 7.6875 C-1.91058594 8.49574219 -2.38367188 9.30398437 -2.87109375 10.13671875 C-3.24363281 10.75160156 -3.61617188 11.36648437 -4 12 C-5.08784335 8.68604014 -5.07262544 8.16419665 -3.5625 4.75 C-3.046875 3.8425 -2.53125 2.935 -2 2 C-1.34 2 -0.68 2 0 2 C0 1.34 0 0.68 0 0 Z " fill="#A6D3F9" transform="translate(122,85)"/>
<path d="M0 0 C0.99 0.33 1.98 0.66 3 1 C1.625 2.5 1.625 2.5 0 4 C-0.66 4 -1.32 4 -2 4 C-2.28875 4.639375 -2.5775 5.27875 -2.875 5.9375 C-4 8 -4 8 -6 9 C-5.52797514 4.75177626 -3.03344482 2.80010291 0 0 Z " fill="#C4F3EF" transform="translate(21,15)"/>
<path d="M0 0 C2.97526665 2.55022856 4.50122302 5.40293526 6 9 C5.67 9.99 5.34 10.98 5 12 C4.67 10.68 4.34 9.36 4 8 C3.34 8 2.68 8 2 8 C1.34 5.36 0.68 2.72 0 0 Z " fill="#A3D1F8" transform="translate(117,29)"/>
<path d="M0 0 C0.33 0.99 0.66 1.98 1 3 C-0.40445835 5.2636564 -2.1967913 7.0208685 -4 9 C-4.33 8.01 -4.66 7.02 -5 6 C-4.360625 5.7525 -3.72125 5.505 -3.0625 5.25 C-0.81258459 4.18437567 -0.81258459 4.18437567 -0.25 1.875 C-0.1675 1.25625 -0.085 0.6375 0 0 Z " fill="#ACD6F9" transform="translate(114,98)"/>
</svg>
