<?xml version="1.0" encoding="UTF-8"?>
<svg version="1.1" xmlns="http://www.w3.org/2000/svg" width="127" height="126">
<path d="M0 0 C1.00329346 0.00829834 2.00658691 0.01659668 3.0402832 0.02514648 C20.94367717 0.4305009 35.21636358 7.62987423 47.6875 20.4375 C58.80648977 32.49447133 64.29001496 46.78306416 64.1875 63.125 C64.18250488 64.17574707 64.17750977 65.22649414 64.17236328 66.30908203 C63.77718486 84.05395599 56.22068169 98.05053876 43.6875 110.4375 C31.54638475 121.54486087 16.72867957 127.05117417 0.375 126.875 C-0.62829346 126.86670166 -1.63158691 126.85840332 -2.6652832 126.84985352 C-20.56867717 126.4444991 -34.84136358 119.24512577 -47.3125 106.4375 C-58.43148977 94.38052867 -63.91501496 80.09193584 -63.8125 63.75 C-63.80750488 62.69925293 -63.80250977 61.64850586 -63.79736328 60.56591797 C-63.40218486 42.82104401 -55.84568169 28.82446124 -43.3125 16.4375 C-31.17138475 5.33013913 -16.35367957 -0.17617417 0 0 Z " fill="#B0DBEB" transform="translate(63.3125,-0.4375)"/>
<path d="M0 0 C2.2265625 0.41015625 2.2265625 0.41015625 5.2265625 2.47265625 C7.67897641 6.07463918 8.2265625 8.0463458 8.2265625 12.41015625 C7.44200427 15.50398022 6.41476283 18.44972493 5.2265625 21.41015625 C6.1959375 21.53390625 7.1653125 21.65765625 8.1640625 21.78515625 C9.68 22.09453125 9.68 22.09453125 11.2265625 22.41015625 C12.40082514 24.75868153 12.34164423 26.1478969 12.32421875 28.76171875 C12.32099609 29.6125 12.31777344 30.46328125 12.31445312 31.33984375 C12.30607422 32.22929688 12.29769531 33.11875 12.2890625 34.03515625 C12.28455078 34.93234375 12.28003906 35.82953125 12.27539062 36.75390625 C12.26358841 38.97272273 12.24712405 41.19140643 12.2265625 43.41015625 C13.2165625 43.41015625 14.2065625 43.41015625 15.2265625 43.41015625 C15.21085205 42.85030029 15.1951416 42.29044434 15.17895508 41.71362305 C15.11656402 39.17507035 15.07756032 36.63667896 15.0390625 34.09765625 C15.01392578 33.21658203 14.98878906 32.33550781 14.96289062 31.42773438 C14.95322266 30.58017578 14.94355469 29.73261719 14.93359375 28.859375 C14.9178833 28.07908936 14.90217285 27.29880371 14.88598633 26.49487305 C15.31336961 23.87879719 16.14077168 22.99644755 18.2265625 21.41015625 C18.8865625 21.41015625 19.5465625 21.41015625 20.2265625 21.41015625 C20.2265625 22.07015625 20.2265625 22.73015625 20.2265625 23.41015625 C19.2365625 24.07015625 18.2465625 24.73015625 17.2265625 25.41015625 C16.72124384 27.3345704 16.72124384 27.3345704 16.71484375 29.54296875 C16.67939453 30.34863281 16.64394531 31.15429688 16.60742188 31.984375 C16.58486328 32.82613281 16.56230469 33.66789062 16.5390625 34.53515625 C16.50490234 35.38464844 16.47074219 36.23414063 16.43554688 37.109375 C16.35297077 39.2091673 16.28809272 41.30964189 16.2265625 43.41015625 C16.98453125 43.52488281 17.7425 43.63960937 18.5234375 43.7578125 C22.49622875 44.71656415 24.25343716 46.639744 27.2265625 49.41015625 C28.82783324 52.61269772 28.63357857 54.86330189 28.2265625 58.41015625 C26.12439172 61.82019224 23.73365252 64.67600394 20.1015625 66.4453125 C17.94679063 67.3145673 17.94679063 67.3145673 16.9765625 70.03515625 C16.7290625 70.81890625 16.4815625 71.60265625 16.2265625 72.41015625 C14.5765625 72.41015625 12.9265625 72.41015625 11.2265625 72.41015625 C10.8346875 71.48203125 10.4428125 70.55390625 10.0390625 69.59765625 C8.03482389 66.07296076 6.6736314 65.34387783 3.2265625 63.41015625 C0.3504646 60.61179073 -0.66383265 59.00202246 -1.3984375 55.03515625 C-0.58893751 50.3400563 1.35114705 47.23298972 5.2265625 44.41015625 C8.1965625 43.91515625 8.1965625 43.91515625 11.2265625 43.41015625 C10.8965625 37.47015625 10.5665625 31.53015625 10.2265625 25.41015625 C8.9065625 24.75015625 7.5865625 24.09015625 6.2265625 23.41015625 C6.7525 24.15265625 6.7525 24.15265625 7.2890625 24.91015625 C8.66697908 28.58460046 8.25752137 31.6633132 7.2265625 35.41015625 C5.52008332 38.18318492 4.2546748 39.11613535 1.13671875 40.0078125 C-2.67225865 40.66059898 -5.04428338 40.75042817 -8.5859375 39.09765625 C-14.05038102 32.38419706 -15.49697401 25.15003639 -15.234375 16.60546875 C-13.9128019 7.4440552 -9.78050527 -0.36637072 0 0 Z " fill="#ADD7DF" transform="translate(49.7734375,26.58984375)"/>
<path d="M0 0 C3.06640467 3.16222981 3.45820109 5.59788034 3.41796875 10.0234375 C2.90785046 12.51205198 2.15844782 13.35594671 0.25 15 C-4.03703704 17.72061966 -4.03703704 17.72061966 -7 18.0625 C-7.33 19.7125 -7.66 21.3625 -8 23.0625 C-8.99 23.0625 -9.98 23.0625 -11 23.0625 C-11.433125 22.32 -11.86625 21.5775 -12.3125 20.8125 C-14.37053263 17.45866904 -16.68265147 16.10937462 -20 14.0625 C-22.35858628 11.70391372 -22.36946499 10.98618052 -22.5 7.75 C-22.44834312 5.07675649 -22.37194707 3.5781539 -20.796875 1.39453125 C-14.65853462 -3.89126186 -6.77898123 -4.37809205 0 0 Z " fill="#B0DCEB" transform="translate(73,73.9375)"/>
<path d="M0 0 C2.2265625 0.41015625 2.2265625 0.41015625 5.2265625 2.47265625 C7.67897641 6.07463918 8.2265625 8.0463458 8.2265625 12.41015625 C7.44200427 15.50398022 6.41476283 18.44972493 5.2265625 21.41015625 C6.1959375 21.53390625 7.1653125 21.65765625 8.1640625 21.78515625 C9.68 22.09453125 9.68 22.09453125 11.2265625 22.41015625 C12.40082514 24.75868153 12.34164423 26.1478969 12.32421875 28.76171875 C12.32099609 29.6125 12.31777344 30.46328125 12.31445312 31.33984375 C12.30607422 32.22929688 12.29769531 33.11875 12.2890625 34.03515625 C12.28455078 34.93234375 12.28003906 35.82953125 12.27539062 36.75390625 C12.26358841 38.97272273 12.24712405 41.19140643 12.2265625 43.41015625 C13.2165625 43.41015625 14.2065625 43.41015625 15.2265625 43.41015625 C15.21085205 42.85030029 15.1951416 42.29044434 15.17895508 41.71362305 C15.11656402 39.17507035 15.07756032 36.63667896 15.0390625 34.09765625 C15.01392578 33.21658203 14.98878906 32.33550781 14.96289062 31.42773438 C14.95322266 30.58017578 14.94355469 29.73261719 14.93359375 28.859375 C14.9178833 28.07908936 14.90217285 27.29880371 14.88598633 26.49487305 C15.31336961 23.87879719 16.14077168 22.99644755 18.2265625 21.41015625 C18.8865625 21.41015625 19.5465625 21.41015625 20.2265625 21.41015625 C20.2265625 22.07015625 20.2265625 22.73015625 20.2265625 23.41015625 C19.2365625 24.07015625 18.2465625 24.73015625 17.2265625 25.41015625 C16.72124384 27.3345704 16.72124384 27.3345704 16.71484375 29.54296875 C16.67939453 30.34863281 16.64394531 31.15429688 16.60742188 31.984375 C16.58486328 32.82613281 16.56230469 33.66789062 16.5390625 34.53515625 C16.50490234 35.38464844 16.47074219 36.23414063 16.43554688 37.109375 C16.35297077 39.2091673 16.28809272 41.30964189 16.2265625 43.41015625 C16.98453125 43.52488281 17.7425 43.63960937 18.5234375 43.7578125 C22.49622875 44.71656415 24.25343716 46.639744 27.2265625 49.41015625 C28.82783324 52.61269772 28.63357857 54.86330189 28.2265625 58.41015625 C26.12439172 61.82019224 23.73365252 64.67600394 20.1015625 66.4453125 C17.94679063 67.3145673 17.94679063 67.3145673 16.9765625 70.03515625 C16.7290625 70.81890625 16.4815625 71.60265625 16.2265625 72.41015625 C14.5765625 72.41015625 12.9265625 72.41015625 11.2265625 72.41015625 C10.8346875 71.48203125 10.4428125 70.55390625 10.0390625 69.59765625 C8.03482389 66.07296076 6.6736314 65.34387783 3.2265625 63.41015625 C0.3504646 60.61179073 -0.66383265 59.00202246 -1.3984375 55.03515625 C-0.58893751 50.3400563 1.35114705 47.23298972 5.2265625 44.41015625 C8.1965625 43.91515625 8.1965625 43.91515625 11.2265625 43.41015625 C10.8965625 37.47015625 10.5665625 31.53015625 10.2265625 25.41015625 C8.9065625 24.75015625 7.5865625 24.09015625 6.2265625 23.41015625 C6.7525 24.15265625 6.7525 24.15265625 7.2890625 24.91015625 C8.66697908 28.58460046 8.25752137 31.6633132 7.2265625 35.41015625 C5.52008332 38.18318492 4.2546748 39.11613535 1.13671875 40.0078125 C-2.67225865 40.66059898 -5.04428338 40.75042817 -8.5859375 39.09765625 C-14.05038102 32.38419706 -15.49697401 25.15003639 -15.234375 16.60546875 C-13.9128019 7.4440552 -9.78050527 -0.36637072 0 0 Z M-11.5859375 8.28515625 C-14.18044366 15.14947827 -13.87634396 24.14450163 -11.5234375 31.03515625 C-9.32907687 35.33574071 -9.32907687 35.33574071 -5.7734375 38.41015625 C-1.36575613 39.1314132 0.48593738 38.93016963 4.1640625 36.34765625 C6.70400689 32.73015969 6.71712157 30.74342799 6.2265625 26.41015625 C5.8965625 25.75015625 5.5665625 25.09015625 5.2265625 24.41015625 C5.13156747 22.91258754 5.09669052 21.41072693 5.1015625 19.91015625 C5.09898438 19.11609375 5.09640625 18.32203125 5.09375 17.50390625 C5.2265625 15.41015625 5.2265625 15.41015625 6.2265625 13.41015625 C6.81070952 10.03709007 6.81070952 10.03709007 6.2265625 6.41015625 C3.52255126 3.45460908 1.61303407 1.71450367 -2.3359375 0.84765625 C-6.9273203 1.90720613 -9.12506729 4.38170694 -11.5859375 8.28515625 Z M2.5546875 48.7421875 C0.4084706 51.43758343 0.63530902 53.85293802 0.73828125 57.19140625 C1.57275422 60.98325141 4.10491103 62.36907644 7.2265625 64.41015625 C11.14420956 67.16309743 11.14420956 67.16309743 12.2265625 70.41015625 C13.2165625 70.41015625 14.2065625 70.41015625 15.2265625 70.41015625 C15.5565625 68.76015625 15.8865625 67.11015625 16.2265625 65.41015625 C17.1340625 65.16265625 18.0415625 64.91515625 18.9765625 64.66015625 C22.49568191 63.30664879 24.10112936 62.51655853 26.2265625 59.41015625 C26.81994707 54.73725279 26.92031232 52.5921004 24.5390625 48.53515625 C21.25365992 45.51613766 18.75955954 44.57678636 14.3515625 44.09765625 C9.90367755 44.54244474 6.07627598 45.93643593 2.5546875 48.7421875 Z " fill="#141A1B" transform="translate(49.7734375,26.58984375)"/>
<path d="M0 0 C0.66 0 1.32 0 2 0 C2.20753906 1.07636719 2.41507812 2.15273437 2.62890625 3.26171875 C6.22100568 20.73978507 13.8941562 34.6127239 28.484375 45.40234375 C36.15086453 50.27127887 44.10318396 53.36891706 53 55 C53.33 55.33 53.66 55.66 54 56 C55.66617115 56.04063832 57.33388095 56.042721 59 56 C58.505 56.99 58.505 56.99 58 58 C42.43057376 57.6567862 28.92496276 50.88559804 17.75 40.25 C7.42306526 29.39935383 -0.29289282 15.2304267 0 0 Z " fill="#C3F2EE" transform="translate(0,68)"/>
<path d="M0 0 C3.14687229 0.05066521 4.23413888 0.3033358 7.0625 1.9375 C12.98303623 8.36551076 13.39045093 15.02589503 13.25 23.3125 C12.59 23.3125 11.93 23.3125 11.25 23.3125 C11.14042969 22.44367187 11.03085938 21.57484375 10.91796875 20.6796875 C9.95906922 11.25447158 9.95906922 11.25447158 5.25 3.3125 C3.21729438 3.07429079 3.21729438 3.07429079 0.875 3.0625 C0.08351563 3.03671875 -0.70796875 3.0109375 -1.5234375 2.984375 C-3.80878197 3.14484839 -3.80878197 3.14484839 -5.5234375 4.60546875 C-7.51484172 7.37694532 -6.98964608 10.01736645 -6.75 13.3125 C-6.42 13.9725 -6.09 14.6325 -5.75 15.3125 C-5.65500497 16.81006871 -5.62012802 18.31192932 -5.625 19.8125 C-5.62113281 21.00359375 -5.62113281 21.00359375 -5.6171875 22.21875 C-5.75 24.3125 -5.75 24.3125 -6.75 26.3125 C-7.00952656 29.81610855 -7.09292714 32.4766151 -5.75 35.75 C-3.03241268 37.87311509 -0.99482929 37.80699768 2.3828125 37.65234375 C4.80417029 37.21163637 5.79229417 36.25610777 7.25 34.3125 C7.91 34.3125 8.57 34.3125 9.25 34.3125 C8.30275873 36.68060318 7.59708866 38.06457953 5.5 39.5625 C2.45932719 40.5760576 0.44602338 40.75994327 -2.75 40.3125 C-7.18339976 37.63573034 -8.4107411 36.52984076 -9.8125 31.5 C-10.09145665 26.92336738 -8.59668473 23.44907379 -6.75 19.3125 C-8.1421875 19.7765625 -8.1421875 19.7765625 -9.5625 20.25 C-15.75 22.3125 -15.75 22.3125 -18.9375 20.875 C-19.865625 20.359375 -20.79375 19.84375 -21.75 19.3125 C-21.75 18.6525 -21.75 17.9925 -21.75 17.3125 C-20.656875 17.68375 -19.56375 18.055 -18.4375 18.4375 C-17.220625 18.72625 -16.00375 19.015 -14.75 19.3125 C-13.76 18.6525 -12.77 17.9925 -11.75 17.3125 C-10.43 17.3125 -9.11 17.3125 -7.75 17.3125 C-8.08 16.61125 -8.41 15.91 -8.75 15.1875 C-9.8992099 11.88352153 -10.25618296 9.78346888 -9.75 6.3125 C-7.3125 3.5 -7.3125 3.5 -4.75 1.3125 C-3.75 0.3125 -3.75 0.3125 0 0 Z " fill="#1E2529" transform="translate(78.75,26.6875)"/>
<path d="M0 0 C-2.49787239 2.49787239 -4.9367058 3.28800555 -8.1875 4.6875 C-24.40654561 12.39801985 -34.14977176 26.59760252 -40.10546875 43.0546875 C-41.35025325 46.99358307 -42.21209808 50.94691893 -43 55 C-43.33 55 -43.66 55 -44 55 C-45.29930529 42.26680812 -38.68165053 29.11011844 -30.93359375 19.4140625 C-23.79736936 11.14845303 -12.0019383 -1.53871004 0 0 Z " fill="#C1F0EA" transform="translate(44,4)"/>
<path d="M0 0 C2.125 0.9375 2.125 0.9375 4 2 C2.88625 2.45375 1.7725 2.9075 0.625 3.375 C-2.96199008 4.72465986 -2.96199008 4.72465986 -5 7 C-5.56037594 10.05552355 -5.53614347 12.94179389 -5 16 C-2.89177071 18.4366674 -2.89177071 18.4366674 0 20 C2.8125 22.0625 2.8125 22.0625 5 24 C5 24.99 5 25.98 5 27 C5.99 27 6.98 27 8 27 C8 26.278125 8 25.55625 8 24.8125 C9.55564844 20.43723875 13.09703218 19.18700783 17 17 C18.28612676 15.94021067 18.28612676 15.94021067 18.09765625 13.49609375 C18.08605469 12.48675781 18.07445313 11.47742188 18.0625 10.4375 C18.05347656 9.42558594 18.04445313 8.41367188 18.03515625 7.37109375 C18.02355469 6.58863281 18.01195313 5.80617188 18 5 C20.49330733 7.20740809 20.96451613 7.7949821 21.5625 11.25 C20.82531379 16.16457474 18.70474866 18.77958775 15 22 C14.29875 22.34160156 13.5975 22.68320313 12.875 23.03515625 C10.72022813 23.90441105 10.72022813 23.90441105 9.75 26.625 C9.5025 27.40875 9.255 28.1925 9 29 C7.35 29 5.7 29 4 29 C3.608125 28.071875 3.21625 27.14375 2.8125 26.1875 C0.80826139 22.66280451 -0.5529311 21.93372158 -4 20 C-6.8760979 17.20163448 -7.89039515 15.59186621 -8.625 11.625 C-7.79538314 6.81322222 -5.54458928 4.25073732 -2 1 C-1.34 0.67 -0.68 0.34 0 0 Z " fill="#1A2123" transform="translate(57,70)"/>
<path d="M0 0 C0.33 0.99 0.66 1.98 1 3 C1.556875 2.79375 2.11375 2.5875 2.6875 2.375 C5.72668339 1.88215945 7.31735316 2.54992063 10 4 C10.97556564 6.92669691 11.0606341 8.44061321 10.87890625 11.44921875 C10.83056641 12.29677734 10.78222656 13.14433594 10.73242188 14.01757812 C10.67634766 14.89865234 10.62027344 15.77972656 10.5625 16.6875 C10.51029297 17.58017578 10.45808594 18.47285156 10.40429688 19.39257812 C10.2747182 21.5954156 10.13975754 23.79778873 10 26 C9.01 26 8.02 26 7 26 C6.67 19.07 6.34 12.14 6 5 C3.03 4.505 3.03 4.505 0 4 C0 2.68 0 1.36 0 0 Z " fill="#94B8C1" transform="translate(55,44)"/>
<path d="M0 0 C3.60786116 0.09295617 4.58447503 0.36667034 7.6875 2.5 C10.13991391 6.10198293 10.6875 8.07368955 10.6875 12.4375 C9.90294177 15.53132397 8.87570033 18.47706868 7.6875 21.4375 C8.6775 21.7675 9.6675 22.0975 10.6875 22.4375 C9.6975 22.4375 8.7075 22.4375 7.6875 22.4375 C7.3575 23.0975 7.0275 23.7575 6.6875 24.4375 C6.6604957 22.97926788 6.64110213 21.52089325 6.625 20.0625 C6.61339844 19.25039063 6.60179688 18.43828125 6.58984375 17.6015625 C6.6875 15.4375 6.6875 15.4375 7.6875 13.4375 C8.18781206 10.02178147 8.18781206 10.02178147 7.6875 6.4375 C5.75623898 3.75911427 5.75623898 3.75911427 2.6875 2.4375 C-0.91280189 2.1065684 -0.91280189 2.1065684 -4.3125 3.4375 C-6.78898077 6.35793703 -6.78898077 6.35793703 -8.3125 9.4375 C-8.9725 9.1075 -9.6325 8.7775 -10.3125 8.4375 C-4.90110759 0.14003165 -4.90110759 0.14003165 0 0 Z " fill="#151A1B" transform="translate(47.3125,26.5625)"/>
<path d="M0 0 C0.66 0 1.32 0 2 0 C2.23074219 1.11117187 2.46148437 2.22234375 2.69921875 3.3671875 C4.38153042 11.14481863 6.06935017 18.23021431 10.046875 25.21484375 C11 27 11 27 11 29 C8 28 8 28 6.71875 25.84765625 C-0.5955976 9.13249651 -0.5955976 9.13249651 0 0 Z " fill="#C5F4E9" transform="translate(0,68)"/>
<path d="M0 0 C0.33 0 0.66 0 1 0 C1.125 6.75 1.125 6.75 0 9 C-0.25952656 12.50360855 -0.34292714 15.1641151 1 18.4375 C3.71758732 20.56061509 5.75517071 20.49449768 9.1328125 20.33984375 C11.55417029 19.89913637 12.54229417 18.94360777 14 17 C14.66 17 15.32 17 16 17 C15.05275873 19.36810318 14.34708866 20.75207953 12.25 22.25 C9.20932719 23.2635576 7.19602338 23.44744327 4 23 C-0.35877155 20.36828887 -1.64438641 19.23418834 -3.0625 14.3125 C-3.37096976 9.27094739 -1.6992425 4.68491716 0 0 Z " fill="#111517" transform="translate(72,44)"/>
<path d="M0 0 C6.01164895 0.64990799 11.38681571 2.88039459 17 5 C20.89532501 6.44271297 23.84033813 7.24468599 28 7 C27.67 7.66 27.34 8.32 27 9 C18.28011234 8.80777803 7.88160992 7.33242881 1.125 1.3359375 C0.75375 0.89507812 0.3825 0.45421875 0 0 Z " fill="#BAE7EE" transform="translate(31,117)"/>
<path d="M0 0 C2.80330094 2.07986844 3.72910595 4.19391597 4.9375 7.4375 C4.625 10.3125 4.625 10.3125 3.9375 12.4375 C2.9475 12.1075 1.9575 11.7775 0.9375 11.4375 C0.20703125 9.58984375 0.20703125 9.58984375 -0.25 7.375 C-0.40855469 6.64152344 -0.56710938 5.90804687 -0.73046875 5.15234375 C-0.84003906 4.58644531 -0.94960937 4.02054688 -1.0625 3.4375 C-2.7125 3.1075 -4.3625 2.7775 -6.0625 2.4375 C-6.0625 1.7775 -6.0625 1.1175 -6.0625 0.4375 C-3.73704648 -0.39301911 -2.40695404 -0.65644201 0 0 Z " fill="#68838F" transform="translate(84.0625,29.5625)"/>
<path d="M0 0 C3.45201639 1.47721422 5.64961936 3.43794001 8.25 6.125 C8.95640625 6.84945313 9.6628125 7.57390625 10.390625 8.3203125 C11.18726562 9.15175781 11.18726562 9.15175781 12 10 C11.67 10.66 11.34 11.32 11 12 C9.53487874 10.75796305 8.07814355 9.50602944 6.625 8.25 C5.81289062 7.55390625 5.00078125 6.8578125 4.1640625 6.140625 C2.14204193 4.14050357 1.06768771 2.60468871 0 0 Z " fill="#ABD5F8" transform="translate(102,13)"/>
<path d="M0 0 C1 3 1 3 0.00390625 5.26171875 C-0.47175781 6.06222656 -0.94742188 6.86273438 -1.4375 7.6875 C-1.91058594 8.49574219 -2.38367188 9.30398437 -2.87109375 10.13671875 C-3.24363281 10.75160156 -3.61617188 11.36648437 -4 12 C-5.08784335 8.68604014 -5.07262544 8.16419665 -3.5625 4.75 C-3.046875 3.8425 -2.53125 2.935 -2 2 C-1.34 2 -0.68 2 0 2 C0 1.34 0 0.68 0 0 Z " fill="#A6D3F9" transform="translate(122,85)"/>
<path d="M0 0 C0.66 0 1.32 0 2 0 C1.05275873 2.36810318 0.34708866 3.75207953 -1.75 5.25 C-4.57753638 6.19251213 -7.03993304 6.1345485 -10 6 C-9.67 5.34 -9.34 4.68 -9 4 C-6.66989091 3.32215008 -4.33640176 2.65583207 -2 2 C-1.34 1.34 -0.68 0.68 0 0 Z " fill="#222B2F" transform="translate(86,61)"/>
<path d="M0 0 C0.99 0.33 1.98 0.66 3 1 C1.625 2.5 1.625 2.5 0 4 C-0.66 4 -1.32 4 -2 4 C-2.28875 4.639375 -2.5775 5.27875 -2.875 5.9375 C-4 8 -4 8 -6 9 C-5.52797514 4.75177626 -3.03344482 2.80010291 0 0 Z " fill="#C4F3EF" transform="translate(21,15)"/>
<path d="M0 0 C0.99 0.495 0.99 0.495 2 1 C2 1.99 2 2.98 2 4 C2.99 4 3.98 4 5 4 C5.33 3.01 5.66 2.02 6 1 C6.5625 2.9375 6.5625 2.9375 7 5 C6 6 6 6 3.5 6.125 C1 6 1 6 0 5 C-0.04063832 3.33382885 -0.042721 1.66611905 0 0 Z " fill="#2F3A3E" transform="translate(60,93)"/>
<path d="M0 0 C2.5654594 2.5654594 2.54046087 4.47686668 3 8 C2.01 8.33 1.02 8.66 0 9 C-0.33 8.67 -0.66 8.34 -1 8 C-0.82364548 5.30917128 -0.38164079 2.67148554 0 0 Z " fill="#A8D0D4" transform="translate(38,36)"/>
<path d="M0 0 C1.0828125 0.9590625 1.0828125 0.9590625 2.1875 1.9375 C4.98191184 3.98673535 6.61663274 4.61332946 10 5 C9.34 5.66 8.68 6.32 8 7 C4.66307847 6.66630785 2.43279187 5.25902102 0 3 C0 2.01 0 1.02 0 0 Z " fill="#273032" transform="translate(39,60)"/>
<path d="M0 0 C2.97526665 2.55022856 4.50122302 5.40293526 6 9 C5.67 9.99 5.34 10.98 5 12 C4.67 10.68 4.34 9.36 4 8 C3.34 8 2.68 8 2 8 C1.34 5.36 0.68 2.72 0 0 Z " fill="#A3D1F8" transform="translate(117,29)"/>
<path d="M0 0 C0.33 0.99 0.66 1.98 1 3 C-0.40445835 5.2636564 -2.1967913 7.0208685 -4 9 C-4.33 8.01 -4.66 7.02 -5 6 C-4.360625 5.7525 -3.72125 5.505 -3.0625 5.25 C-0.81258459 4.18437567 -0.81258459 4.18437567 -0.25 1.875 C-0.1675 1.25625 -0.085 0.6375 0 0 Z " fill="#ACD6F9" transform="translate(114,98)"/>
<path d="M0 0 C1.134375 0.020625 2.26875 0.04125 3.4375 0.0625 C2.798125 0.18625 2.15875 0.31 1.5 0.4375 C0.819375 0.64375 0.13875 0.85 -0.5625 1.0625 C-0.8925 1.7225 -1.2225 2.3825 -1.5625 3.0625 C-3.625 4.1875 -3.625 4.1875 -5.5625 5.0625 C-4.43693182 0.07784091 -4.43693182 0.07784091 0 0 Z " fill="#B8E6F7" transform="translate(78.5625,28.9375)"/>
</svg>
